<mxfile host="app.diagrams.net" agent="Mozilla/5.0 (Windows NT 10.0; Win64; x64) AppleWebKit/537.36 (KHTML, like Gecko) Chrome/133.0.0.0 Safari/537.36" version="26.0.16">
  <diagram name="Página-1" id="cR1xWYi6bnq-wN1eQGpk">
    <mxGraphModel dx="1434" dy="780" grid="1" gridSize="10" guides="1" tooltips="1" connect="1" arrows="1" fold="1" page="1" pageScale="1" pageWidth="827" pageHeight="1169" math="0" shadow="0">
      <root>
        <mxCell id="0" />
        <mxCell id="1" parent="0" />
        <mxCell id="upvaBsoD_DTWW0yfFZRl-1" value="" style="edgeStyle=orthogonalEdgeStyle;rounded=0;orthogonalLoop=1;jettySize=auto;html=1;" edge="1" parent="1" source="upvaBsoD_DTWW0yfFZRl-2" target="upvaBsoD_DTWW0yfFZRl-7">
          <mxGeometry relative="1" as="geometry" />
        </mxCell>
        <mxCell id="upvaBsoD_DTWW0yfFZRl-2" value="inicio" style="ellipse;whiteSpace=wrap;html=1;" vertex="1" parent="1">
          <mxGeometry x="40" y="40" width="80" height="80" as="geometry" />
        </mxCell>
        <mxCell id="upvaBsoD_DTWW0yfFZRl-3" style="edgeStyle=orthogonalEdgeStyle;rounded=0;orthogonalLoop=1;jettySize=auto;html=1;" edge="1" parent="1" source="upvaBsoD_DTWW0yfFZRl-7">
          <mxGeometry relative="1" as="geometry">
            <mxPoint x="390" y="80" as="targetPoint" />
          </mxGeometry>
        </mxCell>
        <mxCell id="upvaBsoD_DTWW0yfFZRl-4" value="" style="edgeStyle=orthogonalEdgeStyle;rounded=0;orthogonalLoop=1;jettySize=auto;html=1;" edge="1" parent="1" source="upvaBsoD_DTWW0yfFZRl-7" target="upvaBsoD_DTWW0yfFZRl-40">
          <mxGeometry relative="1" as="geometry" />
        </mxCell>
        <mxCell id="upvaBsoD_DTWW0yfFZRl-5" value="" style="edgeStyle=orthogonalEdgeStyle;rounded=0;orthogonalLoop=1;jettySize=auto;html=1;" edge="1" parent="1" source="upvaBsoD_DTWW0yfFZRl-7" target="upvaBsoD_DTWW0yfFZRl-40">
          <mxGeometry relative="1" as="geometry" />
        </mxCell>
        <mxCell id="upvaBsoD_DTWW0yfFZRl-6" style="edgeStyle=orthogonalEdgeStyle;rounded=0;orthogonalLoop=1;jettySize=auto;html=1;exitX=0.25;exitY=1;exitDx=0;exitDy=0;" edge="1" parent="1" source="upvaBsoD_DTWW0yfFZRl-7" target="upvaBsoD_DTWW0yfFZRl-41">
          <mxGeometry relative="1" as="geometry">
            <mxPoint x="90" y="170" as="targetPoint" />
          </mxGeometry>
        </mxCell>
        <mxCell id="upvaBsoD_DTWW0yfFZRl-7" value="tela com os marcas cadastradas&amp;nbsp;" style="whiteSpace=wrap;html=1;" vertex="1" parent="1">
          <mxGeometry x="180" y="50" width="120" height="60" as="geometry" />
        </mxCell>
        <mxCell id="upvaBsoD_DTWW0yfFZRl-8" value="botões" style="swimlane;fontStyle=0;childLayout=stackLayout;horizontal=1;startSize=30;horizontalStack=0;resizeParent=1;resizeParentMax=0;resizeLast=0;collapsible=1;marginBottom=0;whiteSpace=wrap;html=1;" vertex="1" parent="1">
          <mxGeometry x="390" y="20" width="140" height="120" as="geometry" />
        </mxCell>
        <mxCell id="upvaBsoD_DTWW0yfFZRl-9" value="ativar" style="text;strokeColor=none;fillColor=none;align=left;verticalAlign=middle;spacingLeft=4;spacingRight=4;overflow=hidden;points=[[0,0.5],[1,0.5]];portConstraint=eastwest;rotatable=0;whiteSpace=wrap;html=1;" vertex="1" parent="upvaBsoD_DTWW0yfFZRl-8">
          <mxGeometry y="30" width="140" height="30" as="geometry" />
        </mxCell>
        <mxCell id="upvaBsoD_DTWW0yfFZRl-10" style="edgeStyle=orthogonalEdgeStyle;rounded=0;orthogonalLoop=1;jettySize=auto;html=1;" edge="1" parent="upvaBsoD_DTWW0yfFZRl-8">
          <mxGeometry relative="1" as="geometry">
            <mxPoint x="230" y="75" as="targetPoint" />
            <mxPoint x="140" y="75" as="sourcePoint" />
          </mxGeometry>
        </mxCell>
        <mxCell id="upvaBsoD_DTWW0yfFZRl-11" value="inativar" style="text;strokeColor=none;fillColor=none;align=left;verticalAlign=middle;spacingLeft=4;spacingRight=4;overflow=hidden;points=[[0,0.5],[1,0.5]];portConstraint=eastwest;rotatable=0;whiteSpace=wrap;html=1;" vertex="1" parent="upvaBsoD_DTWW0yfFZRl-8">
          <mxGeometry y="60" width="140" height="30" as="geometry" />
        </mxCell>
        <mxCell id="upvaBsoD_DTWW0yfFZRl-12" value="alterar" style="text;strokeColor=none;fillColor=none;align=left;verticalAlign=middle;spacingLeft=4;spacingRight=4;overflow=hidden;points=[[0,0.5],[1,0.5]];portConstraint=eastwest;rotatable=0;whiteSpace=wrap;html=1;" vertex="1" parent="upvaBsoD_DTWW0yfFZRl-8">
          <mxGeometry y="90" width="140" height="30" as="geometry" />
        </mxCell>
        <mxCell id="upvaBsoD_DTWW0yfFZRl-13" value="&lt;font style=&quot;font-size: 13px;&quot;&gt;sim&lt;/font&gt;" style="edgeStyle=orthogonalEdgeStyle;rounded=0;orthogonalLoop=1;jettySize=auto;html=1;" edge="1" parent="1" source="upvaBsoD_DTWW0yfFZRl-16" target="upvaBsoD_DTWW0yfFZRl-20">
          <mxGeometry relative="1" as="geometry" />
        </mxCell>
        <mxCell id="upvaBsoD_DTWW0yfFZRl-14" style="edgeStyle=orthogonalEdgeStyle;rounded=0;orthogonalLoop=1;jettySize=auto;html=1;entryX=0.5;entryY=0;entryDx=0;entryDy=0;" edge="1" parent="1" source="upvaBsoD_DTWW0yfFZRl-16" target="upvaBsoD_DTWW0yfFZRl-21">
          <mxGeometry relative="1" as="geometry" />
        </mxCell>
        <mxCell id="upvaBsoD_DTWW0yfFZRl-15" value="&lt;font style=&quot;font-size: 13px;&quot;&gt;não&lt;/font&gt;" style="edgeLabel;html=1;align=center;verticalAlign=middle;resizable=0;points=[];" vertex="1" connectable="0" parent="upvaBsoD_DTWW0yfFZRl-14">
          <mxGeometry x="0.0071" y="-1" relative="1" as="geometry">
            <mxPoint as="offset" />
          </mxGeometry>
        </mxCell>
        <mxCell id="upvaBsoD_DTWW0yfFZRl-16" value="&amp;nbsp;clicou no botão" style="rhombus;whiteSpace=wrap;html=1;" vertex="1" parent="1">
          <mxGeometry x="620" y="55" width="80" height="80" as="geometry" />
        </mxCell>
        <mxCell id="upvaBsoD_DTWW0yfFZRl-17" style="edgeStyle=orthogonalEdgeStyle;rounded=0;orthogonalLoop=1;jettySize=auto;html=1;entryX=0;entryY=0.5;entryDx=0;entryDy=0;" edge="1" parent="1" source="upvaBsoD_DTWW0yfFZRl-9" target="upvaBsoD_DTWW0yfFZRl-16">
          <mxGeometry relative="1" as="geometry" />
        </mxCell>
        <mxCell id="upvaBsoD_DTWW0yfFZRl-18" style="edgeStyle=orthogonalEdgeStyle;rounded=0;orthogonalLoop=1;jettySize=auto;html=1;entryX=0;entryY=0.5;entryDx=0;entryDy=0;" edge="1" parent="1" source="upvaBsoD_DTWW0yfFZRl-11" target="upvaBsoD_DTWW0yfFZRl-16">
          <mxGeometry relative="1" as="geometry" />
        </mxCell>
        <mxCell id="upvaBsoD_DTWW0yfFZRl-19" style="edgeStyle=orthogonalEdgeStyle;rounded=0;orthogonalLoop=1;jettySize=auto;html=1;entryX=0.5;entryY=0;entryDx=0;entryDy=0;" edge="1" parent="1" source="upvaBsoD_DTWW0yfFZRl-20" target="upvaBsoD_DTWW0yfFZRl-37">
          <mxGeometry relative="1" as="geometry" />
        </mxCell>
        <mxCell id="upvaBsoD_DTWW0yfFZRl-20" value="executar a ação &lt;font style=&quot;color: rgb(0, 0, 0);&quot;&gt;alterar_status&lt;/font&gt;" style="whiteSpace=wrap;html=1;" vertex="1" parent="1">
          <mxGeometry x="530" y="200" width="120" height="60" as="geometry" />
        </mxCell>
        <mxCell id="upvaBsoD_DTWW0yfFZRl-21" value="nada acontece&amp;nbsp;" style="rounded=0;whiteSpace=wrap;html=1;" vertex="1" parent="1">
          <mxGeometry x="700" y="200" width="120" height="60" as="geometry" />
        </mxCell>
        <mxCell id="upvaBsoD_DTWW0yfFZRl-22" value="" style="edgeStyle=orthogonalEdgeStyle;rounded=0;orthogonalLoop=1;jettySize=auto;html=1;" edge="1" parent="1" source="upvaBsoD_DTWW0yfFZRl-23" target="upvaBsoD_DTWW0yfFZRl-29">
          <mxGeometry relative="1" as="geometry" />
        </mxCell>
        <mxCell id="upvaBsoD_DTWW0yfFZRl-23" value="usuario clica em salvar" style="rounded=0;whiteSpace=wrap;html=1;" vertex="1" parent="1">
          <mxGeometry x="310" y="310" width="120" height="60" as="geometry" />
        </mxCell>
        <mxCell id="upvaBsoD_DTWW0yfFZRl-24" style="edgeStyle=orthogonalEdgeStyle;rounded=0;orthogonalLoop=1;jettySize=auto;html=1;" edge="1" parent="1" source="upvaBsoD_DTWW0yfFZRl-71" target="upvaBsoD_DTWW0yfFZRl-23">
          <mxGeometry relative="1" as="geometry">
            <mxPoint x="400" y="250" as="targetPoint" />
          </mxGeometry>
        </mxCell>
        <mxCell id="upvaBsoD_DTWW0yfFZRl-25" value="" style="edgeStyle=orthogonalEdgeStyle;rounded=0;orthogonalLoop=1;jettySize=auto;html=1;" edge="1" parent="1" source="upvaBsoD_DTWW0yfFZRl-29" target="upvaBsoD_DTWW0yfFZRl-34">
          <mxGeometry relative="1" as="geometry" />
        </mxCell>
        <mxCell id="upvaBsoD_DTWW0yfFZRl-26" value="sim" style="edgeLabel;html=1;align=center;verticalAlign=middle;resizable=0;points=[];" vertex="1" connectable="0" parent="upvaBsoD_DTWW0yfFZRl-25">
          <mxGeometry x="-0.1176" y="3" relative="1" as="geometry">
            <mxPoint as="offset" />
          </mxGeometry>
        </mxCell>
        <mxCell id="upvaBsoD_DTWW0yfFZRl-27" value="" style="edgeStyle=orthogonalEdgeStyle;rounded=0;orthogonalLoop=1;jettySize=auto;html=1;" edge="1" parent="1" source="upvaBsoD_DTWW0yfFZRl-29" target="upvaBsoD_DTWW0yfFZRl-36">
          <mxGeometry relative="1" as="geometry" />
        </mxCell>
        <mxCell id="upvaBsoD_DTWW0yfFZRl-28" value="não" style="edgeLabel;html=1;align=center;verticalAlign=middle;resizable=0;points=[];" vertex="1" connectable="0" parent="upvaBsoD_DTWW0yfFZRl-27">
          <mxGeometry x="-0.2333" y="2" relative="1" as="geometry">
            <mxPoint as="offset" />
          </mxGeometry>
        </mxCell>
        <mxCell id="upvaBsoD_DTWW0yfFZRl-29" value="alterar informações&amp;nbsp;" style="rhombus;whiteSpace=wrap;html=1;rounded=0;" vertex="1" parent="1">
          <mxGeometry x="325" y="400" width="90" height="90" as="geometry" />
        </mxCell>
        <mxCell id="upvaBsoD_DTWW0yfFZRl-30" value="" style="edgeStyle=orthogonalEdgeStyle;rounded=0;orthogonalLoop=1;jettySize=auto;html=1;" edge="1" parent="1" source="upvaBsoD_DTWW0yfFZRl-34" target="upvaBsoD_DTWW0yfFZRl-35">
          <mxGeometry relative="1" as="geometry" />
        </mxCell>
        <mxCell id="upvaBsoD_DTWW0yfFZRl-31" value="não" style="edgeLabel;html=1;align=center;verticalAlign=middle;resizable=0;points=[];" vertex="1" connectable="0" parent="upvaBsoD_DTWW0yfFZRl-30">
          <mxGeometry x="-0.2099" y="1" relative="1" as="geometry">
            <mxPoint as="offset" />
          </mxGeometry>
        </mxCell>
        <mxCell id="upvaBsoD_DTWW0yfFZRl-32" value="" style="edgeStyle=orthogonalEdgeStyle;rounded=0;orthogonalLoop=1;jettySize=auto;html=1;" edge="1" parent="1" source="upvaBsoD_DTWW0yfFZRl-34" target="upvaBsoD_DTWW0yfFZRl-38">
          <mxGeometry relative="1" as="geometry" />
        </mxCell>
        <mxCell id="upvaBsoD_DTWW0yfFZRl-33" value="sim" style="edgeLabel;html=1;align=center;verticalAlign=middle;resizable=0;points=[];" vertex="1" connectable="0" parent="upvaBsoD_DTWW0yfFZRl-32">
          <mxGeometry x="-0.25" y="-2" relative="1" as="geometry">
            <mxPoint as="offset" />
          </mxGeometry>
        </mxCell>
        <mxCell id="upvaBsoD_DTWW0yfFZRl-34" value="&lt;font style=&quot;font-size: 10px;&quot;&gt;validar os dados com as mesmas regras do cadastro&amp;nbsp;&lt;/font&gt;" style="rhombus;whiteSpace=wrap;html=1;rounded=0;" vertex="1" parent="1">
          <mxGeometry x="510" y="445" width="95" height="100" as="geometry" />
        </mxCell>
        <mxCell id="upvaBsoD_DTWW0yfFZRl-35" value="informa ao usuario e volta para o modal&amp;nbsp;" style="whiteSpace=wrap;html=1;rounded=0;" vertex="1" parent="1">
          <mxGeometry x="690" y="465" width="120" height="60" as="geometry" />
        </mxCell>
        <mxCell id="upvaBsoD_DTWW0yfFZRl-36" value="exibe as informaçoes dos tipos&amp;nbsp;" style="whiteSpace=wrap;html=1;rounded=0;" vertex="1" parent="1">
          <mxGeometry x="310" y="525" width="120" height="60" as="geometry" />
        </mxCell>
        <mxCell id="upvaBsoD_DTWW0yfFZRl-37" value="informa ao usuario e atualiza a pagina&amp;nbsp;" style="rounded=0;whiteSpace=wrap;html=1;" vertex="1" parent="1">
          <mxGeometry x="530" y="350" width="120" height="60" as="geometry" />
        </mxCell>
        <mxCell id="upvaBsoD_DTWW0yfFZRl-38" value="realiza a alteraçao" style="whiteSpace=wrap;html=1;rounded=0;" vertex="1" parent="1">
          <mxGeometry x="497.5" y="585" width="120" height="60" as="geometry" />
        </mxCell>
        <mxCell id="upvaBsoD_DTWW0yfFZRl-39" style="edgeStyle=orthogonalEdgeStyle;rounded=0;orthogonalLoop=1;jettySize=auto;html=1;entryX=0.5;entryY=0;entryDx=0;entryDy=0;" edge="1" parent="1" source="upvaBsoD_DTWW0yfFZRl-40" target="upvaBsoD_DTWW0yfFZRl-43">
          <mxGeometry relative="1" as="geometry" />
        </mxCell>
        <mxCell id="upvaBsoD_DTWW0yfFZRl-40" value="botão que abre um modal para registrar movimentações" style="whiteSpace=wrap;html=1;" vertex="1" parent="1">
          <mxGeometry x="180" y="180" width="120" height="60" as="geometry" />
        </mxCell>
        <mxCell id="upvaBsoD_DTWW0yfFZRl-41" value="menu superior" style="rounded=0;whiteSpace=wrap;html=1;" vertex="1" parent="1">
          <mxGeometry x="30" y="180" width="120" height="60" as="geometry" />
        </mxCell>
        <mxCell id="upvaBsoD_DTWW0yfFZRl-42" value="" style="edgeStyle=orthogonalEdgeStyle;rounded=0;orthogonalLoop=1;jettySize=auto;html=1;" edge="1" parent="1" source="upvaBsoD_DTWW0yfFZRl-43" target="upvaBsoD_DTWW0yfFZRl-49">
          <mxGeometry relative="1" as="geometry" />
        </mxCell>
        <mxCell id="upvaBsoD_DTWW0yfFZRl-43" value="modal" style="swimlane;fontStyle=0;childLayout=stackLayout;horizontal=1;startSize=30;horizontalStack=0;resizeParent=1;resizeParentMax=0;resizeLast=0;collapsible=1;marginBottom=0;whiteSpace=wrap;html=1;" vertex="1" parent="1">
          <mxGeometry x="130" y="370" width="140" height="60" as="geometry" />
        </mxCell>
        <mxCell id="upvaBsoD_DTWW0yfFZRl-44" value="&lt;span style=&quot;color: rgb(51, 51, 51); font-family: Arial, sans-serif; font-size: 16px; background-color: rgb(255, 255, 255);&quot;&gt;Descrição marca&lt;/span&gt;" style="text;strokeColor=none;fillColor=none;align=left;verticalAlign=middle;spacingLeft=4;spacingRight=4;overflow=hidden;points=[[0,0.5],[1,0.5]];portConstraint=eastwest;rotatable=0;whiteSpace=wrap;html=1;" vertex="1" parent="upvaBsoD_DTWW0yfFZRl-43">
          <mxGeometry y="30" width="140" height="30" as="geometry" />
        </mxCell>
        <mxCell id="upvaBsoD_DTWW0yfFZRl-45" style="edgeStyle=orthogonalEdgeStyle;rounded=0;orthogonalLoop=1;jettySize=auto;html=1;entryX=0.5;entryY=0;entryDx=0;entryDy=0;" edge="1" parent="1" source="upvaBsoD_DTWW0yfFZRl-49" target="upvaBsoD_DTWW0yfFZRl-52">
          <mxGeometry relative="1" as="geometry">
            <mxPoint x="350" y="700" as="targetPoint" />
          </mxGeometry>
        </mxCell>
        <mxCell id="upvaBsoD_DTWW0yfFZRl-46" value="&lt;font style=&quot;font-size: 14px;&quot;&gt;sim&lt;/font&gt;" style="edgeLabel;html=1;align=center;verticalAlign=middle;resizable=0;points=[];" vertex="1" connectable="0" parent="upvaBsoD_DTWW0yfFZRl-45">
          <mxGeometry x="-0.1769" y="1" relative="1" as="geometry">
            <mxPoint x="16" y="26" as="offset" />
          </mxGeometry>
        </mxCell>
        <mxCell id="upvaBsoD_DTWW0yfFZRl-47" style="edgeStyle=orthogonalEdgeStyle;rounded=0;orthogonalLoop=1;jettySize=auto;html=1;entryX=0.5;entryY=0;entryDx=0;entryDy=0;" edge="1" parent="1" source="upvaBsoD_DTWW0yfFZRl-49" target="upvaBsoD_DTWW0yfFZRl-50">
          <mxGeometry relative="1" as="geometry">
            <mxPoint x="90" y="695" as="targetPoint" />
            <Array as="points">
              <mxPoint x="90" y="620" />
            </Array>
          </mxGeometry>
        </mxCell>
        <mxCell id="upvaBsoD_DTWW0yfFZRl-48" value="&lt;font style=&quot;font-size: 14px;&quot;&gt;não&lt;/font&gt;" style="edgeLabel;html=1;align=center;verticalAlign=middle;resizable=0;points=[];" vertex="1" connectable="0" parent="upvaBsoD_DTWW0yfFZRl-47">
          <mxGeometry x="-0.6522" relative="1" as="geometry">
            <mxPoint x="-20" y="25" as="offset" />
          </mxGeometry>
        </mxCell>
        <mxCell id="upvaBsoD_DTWW0yfFZRl-49" value="todas as campos foram preenchidos?" style="rhombus;whiteSpace=wrap;html=1;fontStyle=0;startSize=30;" vertex="1" parent="1">
          <mxGeometry x="130" y="555" width="140" height="130" as="geometry" />
        </mxCell>
        <mxCell id="upvaBsoD_DTWW0yfFZRl-50" value="da o alert e retorna para o modal" style="rounded=0;whiteSpace=wrap;html=1;" vertex="1" parent="1">
          <mxGeometry x="30" y="700" width="120" height="60" as="geometry" />
        </mxCell>
        <mxCell id="upvaBsoD_DTWW0yfFZRl-51" value="" style="edgeStyle=orthogonalEdgeStyle;rounded=0;orthogonalLoop=1;jettySize=auto;html=1;" edge="1" parent="1" source="upvaBsoD_DTWW0yfFZRl-52" target="upvaBsoD_DTWW0yfFZRl-57">
          <mxGeometry relative="1" as="geometry" />
        </mxCell>
        <mxCell id="upvaBsoD_DTWW0yfFZRl-52" value="valida os campos" style="rounded=0;whiteSpace=wrap;html=1;" vertex="1" parent="1">
          <mxGeometry x="294" y="700" width="120" height="60" as="geometry" />
        </mxCell>
        <mxCell id="upvaBsoD_DTWW0yfFZRl-53" style="edgeStyle=orthogonalEdgeStyle;rounded=0;orthogonalLoop=1;jettySize=auto;html=1;" edge="1" parent="1" source="upvaBsoD_DTWW0yfFZRl-57" target="upvaBsoD_DTWW0yfFZRl-59">
          <mxGeometry relative="1" as="geometry">
            <mxPoint x="455" y="950" as="targetPoint" />
          </mxGeometry>
        </mxCell>
        <mxCell id="upvaBsoD_DTWW0yfFZRl-54" value="&lt;font style=&quot;font-size: 13px;&quot;&gt;sim&lt;/font&gt;" style="edgeLabel;html=1;align=center;verticalAlign=middle;resizable=0;points=[];" vertex="1" connectable="0" parent="upvaBsoD_DTWW0yfFZRl-53">
          <mxGeometry x="0.0286" y="-3" relative="1" as="geometry">
            <mxPoint y="-3" as="offset" />
          </mxGeometry>
        </mxCell>
        <mxCell id="upvaBsoD_DTWW0yfFZRl-55" value="" style="edgeStyle=orthogonalEdgeStyle;rounded=0;orthogonalLoop=1;jettySize=auto;html=1;" edge="1" parent="1" source="upvaBsoD_DTWW0yfFZRl-57" target="upvaBsoD_DTWW0yfFZRl-60">
          <mxGeometry relative="1" as="geometry" />
        </mxCell>
        <mxCell id="upvaBsoD_DTWW0yfFZRl-56" value="&lt;font style=&quot;font-size: 13px;&quot;&gt;não&lt;/font&gt;" style="edgeLabel;html=1;align=center;verticalAlign=middle;resizable=0;points=[];" vertex="1" connectable="0" parent="upvaBsoD_DTWW0yfFZRl-55">
          <mxGeometry x="-0.2" y="1" relative="1" as="geometry">
            <mxPoint as="offset" />
          </mxGeometry>
        </mxCell>
        <mxCell id="upvaBsoD_DTWW0yfFZRl-57" value="deu certo?" style="rhombus;whiteSpace=wrap;html=1;rounded=0;" vertex="1" parent="1">
          <mxGeometry x="305" y="910" width="80" height="80" as="geometry" />
        </mxCell>
        <mxCell id="upvaBsoD_DTWW0yfFZRl-58" value="" style="edgeStyle=orthogonalEdgeStyle;rounded=0;orthogonalLoop=1;jettySize=auto;html=1;" edge="1" parent="1" source="upvaBsoD_DTWW0yfFZRl-59" target="upvaBsoD_DTWW0yfFZRl-62">
          <mxGeometry relative="1" as="geometry" />
        </mxCell>
        <mxCell id="upvaBsoD_DTWW0yfFZRl-59" value="envia pro arquivo controler" style="rounded=0;whiteSpace=wrap;html=1;" vertex="1" parent="1">
          <mxGeometry x="455" y="920" width="120" height="60" as="geometry" />
        </mxCell>
        <mxCell id="upvaBsoD_DTWW0yfFZRl-60" value="retorna para o modal&amp;nbsp;" style="whiteSpace=wrap;html=1;rounded=0;" vertex="1" parent="1">
          <mxGeometry x="355" y="1070" width="120" height="60" as="geometry" />
        </mxCell>
        <mxCell id="upvaBsoD_DTWW0yfFZRl-61" value="" style="edgeStyle=orthogonalEdgeStyle;rounded=0;orthogonalLoop=1;jettySize=auto;html=1;" edge="1" parent="1" source="upvaBsoD_DTWW0yfFZRl-62" target="upvaBsoD_DTWW0yfFZRl-64">
          <mxGeometry relative="1" as="geometry" />
        </mxCell>
        <mxCell id="upvaBsoD_DTWW0yfFZRl-62" value="monta o insert para realizar o cadastro&amp;nbsp;&amp;nbsp;" style="rounded=0;whiteSpace=wrap;html=1;" vertex="1" parent="1">
          <mxGeometry x="600" y="920" width="120" height="60" as="geometry" />
        </mxCell>
        <mxCell id="upvaBsoD_DTWW0yfFZRl-63" value="" style="edgeStyle=orthogonalEdgeStyle;rounded=0;orthogonalLoop=1;jettySize=auto;html=1;" edge="1" parent="1" source="upvaBsoD_DTWW0yfFZRl-64" target="upvaBsoD_DTWW0yfFZRl-66">
          <mxGeometry relative="1" as="geometry" />
        </mxCell>
        <mxCell id="upvaBsoD_DTWW0yfFZRl-64" value="realiza o cadastro&amp;nbsp;" style="rounded=0;whiteSpace=wrap;html=1;" vertex="1" parent="1">
          <mxGeometry x="655" y="1020" width="120" height="60" as="geometry" />
        </mxCell>
        <mxCell id="upvaBsoD_DTWW0yfFZRl-65" value="" style="edgeStyle=orthogonalEdgeStyle;rounded=0;orthogonalLoop=1;jettySize=auto;html=1;" edge="1" parent="1" source="upvaBsoD_DTWW0yfFZRl-66" target="upvaBsoD_DTWW0yfFZRl-68">
          <mxGeometry relative="1" as="geometry">
            <mxPoint x="597.5" y="1110" as="targetPoint" />
          </mxGeometry>
        </mxCell>
        <mxCell id="upvaBsoD_DTWW0yfFZRl-66" value="e informa o usuario&amp;nbsp;" style="rounded=0;whiteSpace=wrap;html=1;" vertex="1" parent="1">
          <mxGeometry x="655" y="1109" width="120" height="60" as="geometry" />
        </mxCell>
        <mxCell id="upvaBsoD_DTWW0yfFZRl-67" value="" style="edgeStyle=orthogonalEdgeStyle;rounded=0;orthogonalLoop=1;jettySize=auto;html=1;" edge="1" parent="1" source="upvaBsoD_DTWW0yfFZRl-68" target="upvaBsoD_DTWW0yfFZRl-69">
          <mxGeometry relative="1" as="geometry" />
        </mxCell>
        <mxCell id="upvaBsoD_DTWW0yfFZRl-68" value="recarrega a tela&amp;nbsp;" style="rounded=0;whiteSpace=wrap;html=1;" vertex="1" parent="1">
          <mxGeometry x="655" y="1220" width="120" height="60" as="geometry" />
        </mxCell>
        <mxCell id="upvaBsoD_DTWW0yfFZRl-69" value="fim" style="ellipse;whiteSpace=wrap;html=1;rounded=0;" vertex="1" parent="1">
          <mxGeometry x="520" y="1250" width="80" height="80" as="geometry" />
        </mxCell>
        <mxCell id="upvaBsoD_DTWW0yfFZRl-70" value="" style="edgeStyle=orthogonalEdgeStyle;rounded=0;orthogonalLoop=1;jettySize=auto;html=1;" edge="1" parent="1" source="upvaBsoD_DTWW0yfFZRl-12" target="upvaBsoD_DTWW0yfFZRl-71">
          <mxGeometry relative="1" as="geometry">
            <mxPoint x="370" y="270" as="targetPoint" />
            <mxPoint x="390" y="125" as="sourcePoint" />
          </mxGeometry>
        </mxCell>
        <mxCell id="upvaBsoD_DTWW0yfFZRl-71" value="utiliza a ação a busca_info para buscar as informaçoes no banco&amp;nbsp;" style="rounded=0;whiteSpace=wrap;html=1;" vertex="1" parent="1">
          <mxGeometry x="310" y="150" width="120" height="70" as="geometry" />
        </mxCell>
        <mxCell id="upvaBsoD_DTWW0yfFZRl-72" value="exibe no modal a descriçao da marca para que o usuario edite" style="rounded=0;whiteSpace=wrap;html=1;" vertex="1" parent="1">
          <mxGeometry x="310" y="230" width="120" height="60" as="geometry" />
        </mxCell>
        <mxCell id="upvaBsoD_DTWW0yfFZRl-73" value="manda um consulta update para o banco&amp;nbsp;" style="whiteSpace=wrap;html=1;" vertex="1" parent="1">
          <mxGeometry x="530" y="270" width="120" height="60" as="geometry" />
        </mxCell>
      </root>
    </mxGraphModel>
  </diagram>
</mxfile>
